static_grf.mot
version=1
nRows=10
nColumns 19
inDegrees=yes
endheader
time	1_ground_force_vx	1_ground_force_vy	1_ground_force_vz	1_ground_force_px	1_ground_force_py	1_ground_force_pz	1_ground_torque_x	1_ground_torque_y	1_ground_torque_z	2_ground_force_vx	2_ground_force_vy	2_ground_force_vz	2_ground_force_px	2_ground_force_py	2_ground_force_pz	2_ground_torque_x	2_ground_torque_y	2_ground_torque_z
            0.453500	          -10.784721	          458.425577	          -42.855930	           -0.262427	            0.005989	           -0.351898	           -0.057290	            2.435219	           -0.227657	            8.683071	          455.275673	           46.577646	           -0.314829	            0.005481	           -0.735223	           -0.005040	           -0.264283	           -0.027038
            0.454000	          -10.647500	          458.245958	          -42.994615	           -0.262506	            0.005989	           -0.351989	           -0.056617	            2.436667	           -0.228619	            8.826258	          454.539785	           46.528030	           -0.314924	            0.005481	           -0.735186	           -0.004865	           -0.250539	           -0.025646
            0.454500	          -10.646655	          458.604917	          -42.626222	           -0.262570	            0.005987	           -0.351632	           -0.056472	            2.432543	           -0.226099	            8.682283	          455.460818	           46.296735	           -0.315044	            0.005481	           -0.735345	           -0.005114	           -0.268259	           -0.027268
            0.455000	          -10.646622	          458.424620	          -42.626995	           -0.262657	            0.005988	           -0.351876	           -0.057170	            2.461622	           -0.228896	            8.685709	          454.539278	           46.528090	           -0.315007	            0.005479	           -0.734856	           -0.004839	           -0.253259	           -0.025924
            0.455500	          -10.738258	          457.523501	          -42.676484	           -0.262523	            0.005989	           -0.352113	           -0.057181	            2.436301	           -0.227251	            8.776709	          455.276513	           46.436822	           -0.315125	            0.005480	           -0.735221	           -0.004575	           -0.237345	           -0.024208
            0.456000	          -10.692774	          458.244966	          -42.765218	           -0.262590	            0.005988	           -0.351846	           -0.057368	            2.458527	           -0.229439	            8.778723	          454.723924	           46.481779	           -0.315178	            0.005479	           -0.735103	           -0.005092	           -0.263754	           -0.026961
            0.456500	          -10.875966	          457.884203	          -42.720457	           -0.262485	            0.005990	           -0.352244	           -0.056411	            2.374926	           -0.221580	            8.779367	          454.539951	           46.434194	           -0.315085	            0.005479	           -0.735022	           -0.005320	           -0.275422	           -0.028136
            0.457000	          -10.647209	          459.146469	          -42.807327	           -0.262332	            0.005988	           -0.351658	           -0.056066	            2.417759	           -0.225414	            8.685791	          454.538608	           46.715802	           -0.314993	            0.005479	           -0.734859	           -0.006027	           -0.315383	           -0.032414
            0.457500	          -10.555946	          458.967038	          -42.991751	           -0.262407	            0.005988	           -0.351672	           -0.056433	            2.453671	           -0.229837	            8.919999	          454.539789	           46.621847	           -0.314994	            0.005480	           -0.735107	           -0.006070	           -0.309305	           -0.031725
            0.458000	          -10.647338	          458.606096	          -42.901358	           -0.262574	            0.005989	           -0.351984	           -0.055723	            2.400113	           -0.224524	            8.776709	          455.276513	           46.436822	           -0.315076	            0.005481	           -0.735347	           -0.005237	           -0.271654	           -0.027708
